<svg width="43" height="41" viewBox="0 0 43 41" fill="none" xmlns="http://www.w3.org/2000/svg">
<path d="M9.38625 40.2683C4.20959 40.2683 0 36.0588 0 30.8821C0 25.7054 4.20959 21.4958 9.38625 21.4958C14.5629 21.4958 18.7725 25.7054 18.7725 30.8821C18.7725 36.0872 14.5629 40.2683 9.38625 40.2683Z" fill="white"/>
<path d="M9.5 40C4.26061 40 0 35.7394 0 30.5C0 25.2606 4.26061 21 9.5 21C14.7394 21 19 25.2606 19 30.5C19 35.7682 14.7394 40 9.5 40Z" fill="white"/>
<path d="M31.5711 1.04508L21.3885 17.6843C21.104 18.1679 21.4169 18.7652 21.9573 18.7652H32.14H42.3226C42.8631 18.7652 43.1759 18.1394 42.8915 17.6843L32.7089 1.04508C32.4244 0.618436 31.8271 0.618436 31.5711 1.04508Z" fill="#F7941D"/>
<path d="M18.5719 3.86116L14.9027 0.191991C14.6467 -0.0639971 14.1916 -0.0639971 13.9357 0.191991L9.89672 4.23092C9.64074 4.48691 9.18565 4.48691 8.92966 4.23092L4.89072 0.191991C4.63474 -0.0639971 4.17965 -0.0639971 3.92366 0.191991L0.254491 3.86116C-0.00149712 4.11715 -0.00149712 4.57224 0.254491 4.82823L4.29342 8.86716C4.54941 9.12315 4.54941 9.57823 4.29342 9.83422L0.254491 13.8732C-0.00149712 14.1291 -0.00149712 14.5842 0.254491 14.8402L3.92366 18.5094C4.17965 18.7654 4.63474 18.7654 4.89072 18.5094L8.92966 14.4705C9.18565 14.2145 9.64074 14.2145 9.89672 14.4705L13.9357 18.5094C14.1916 18.7654 14.6467 18.7654 14.9027 18.5094L18.5719 14.8402C18.8279 14.5842 18.8279 14.1291 18.5719 13.8732L14.533 9.83422C14.277 9.57823 14.277 9.12315 14.533 8.86716L18.5719 4.82823C18.8563 4.57224 18.8563 4.14559 18.5719 3.86116Z" fill="white"/>
<path d="M35.6055 33.3555H36.6227L39.0146 38.7964H39.0971L41.489 33.3555H42.5063V39.9102H41.709V34.9301H41.6402L39.4408 39.9102H38.671L36.4715 34.9301H36.4028V39.9102H35.6055V33.3555Z" fill="white"/>
<path d="M34.1705 36.6328C34.1705 37.3242 34.0365 37.9216 33.7684 38.4252C33.5003 38.9287 33.1326 39.317 32.6652 39.5901C32.1979 39.8633 31.664 39.9998 31.0638 39.9998C30.4635 39.9998 29.9297 39.8633 29.4623 39.5901C28.9949 39.317 28.6272 38.9287 28.3591 38.4252C28.0911 37.9216 27.957 37.3242 27.957 36.6328C27.957 35.9415 28.0911 35.3441 28.3591 34.8405C28.6272 34.337 28.9949 33.9487 29.4623 33.6755C29.9297 33.4024 30.4635 33.2659 31.0638 33.2659C31.664 33.2659 32.1979 33.4024 32.6652 33.6755C33.1326 33.9487 33.5003 34.337 33.7684 34.8405C34.0365 35.3441 34.1705 35.9415 34.1705 36.6328ZM33.3457 36.6328C33.3457 36.0653 33.2437 35.5863 33.0398 35.1958C32.8382 34.8053 32.5644 34.5098 32.2185 34.3092C31.8748 34.1087 31.4899 34.0084 31.0638 34.0084C30.6376 34.0084 30.2516 34.1087 29.9056 34.3092C29.5619 34.5098 29.2882 34.8053 29.0843 35.1958C28.8826 35.5863 28.7818 36.0653 28.7818 36.6328C28.7818 37.2004 28.8826 37.6794 29.0843 38.0699C29.2882 38.4604 29.5619 38.7559 29.9056 38.9564C30.2516 39.157 30.6376 39.2573 31.0638 39.2573C31.4899 39.2573 31.8748 39.157 32.2185 38.9564C32.5644 38.7559 32.8382 38.4604 33.0398 38.0699C33.2437 37.6794 33.3457 37.2004 33.3457 36.6328Z" fill="white"/>
<path d="M23.4493 39.9102H21.2773V33.3555H23.5455C24.2283 33.3555 24.8125 33.4867 25.2982 33.7491C25.7839 34.0094 26.1562 34.3839 26.4151 34.8725C26.674 35.359 26.8035 35.9415 26.8035 36.62C26.8035 37.3028 26.6729 37.8906 26.4117 38.3835C26.1505 38.8743 25.7702 39.2519 25.2707 39.5165C24.7713 39.779 24.1641 39.9102 23.4493 39.9102ZM22.1296 39.2061H23.3943C23.9763 39.2061 24.4585 39.1015 24.8411 38.8924C25.2238 38.6833 25.509 38.3857 25.6969 37.9995C25.8847 37.6133 25.9787 37.1534 25.9787 36.62C25.9787 36.0909 25.8859 35.6353 25.7003 35.2534C25.5147 34.8693 25.2375 34.5749 24.8686 34.37C24.4998 34.1631 24.0404 34.0596 23.4905 34.0596H22.1296V39.2061Z" fill="white"/>
<path d="M38.1506 28.6446V28.0685L41.9447 22.794H38.1094V22.0898H42.9619V22.6659L39.1679 27.9404H43.0032V28.6446H38.1506Z" fill="white"/>
<path d="M36.6687 22.0898V28.6446H35.8164V22.0898H36.6687Z" fill="white"/>
<path d="M33.2673 22.0898H34.1196V26.4298C34.1196 26.8779 34.0062 27.2779 33.7794 27.63C33.5548 27.9799 33.2375 28.2562 32.8274 28.4589C32.4173 28.6595 31.9362 28.7598 31.384 28.7598C30.8319 28.7598 30.3507 28.6595 29.9406 28.4589C29.5305 28.2562 29.212 27.9799 28.9852 27.63C28.7607 27.2779 28.6484 26.8779 28.6484 26.4298V22.0898H29.5007V26.3658C29.5007 26.6858 29.5763 26.9707 29.7275 27.2203C29.8788 27.4678 30.0941 27.6631 30.3736 27.806C30.6554 27.9468 30.9922 28.0173 31.384 28.0173C31.7758 28.0173 32.1126 27.9468 32.3944 27.806C32.6762 27.6631 32.8916 27.4678 33.0405 27.2203C33.1917 26.9707 33.2673 26.6858 33.2673 26.3658V22.0898Z" fill="white"/>
<path d="M23.8318 26.596H24.7666L25.5501 27.5561L25.7563 27.8122L26.9248 29.2588H25.99L25.2202 28.2987L25.0278 28.0554L23.8318 26.596ZM27.2135 25.367C27.2135 26.0583 27.0794 26.6557 26.8114 27.1593C26.5433 27.6628 26.1756 28.0512 25.7082 28.3243C25.2408 28.5974 24.707 28.7339 24.1067 28.7339C23.5065 28.7339 22.9726 28.5974 22.5053 28.3243C22.0379 28.0512 21.6701 27.6628 21.4021 27.1593C21.134 26.6557 21 26.0583 21 25.367C21 24.6757 21.134 24.0782 21.4021 23.5747C21.6701 23.0711 22.0379 22.6828 22.5053 22.4097C22.9726 22.1366 23.5065 22 24.1067 22C24.707 22 25.2408 22.1366 25.7082 22.4097C26.1756 22.6828 26.5433 23.0711 26.8114 23.5747C27.0794 24.0782 27.2135 24.6757 27.2135 25.367ZM26.3887 25.367C26.3887 24.7994 26.2867 24.3204 26.0828 23.9299C25.8812 23.5395 25.6074 23.2439 25.2614 23.0434C24.9178 22.8428 24.5329 22.7425 24.1067 22.7425C23.6806 22.7425 23.2945 22.8428 22.9486 23.0434C22.6049 23.2439 22.3311 23.5395 22.1272 23.9299C21.9256 24.3204 21.8248 24.7994 21.8248 25.367C21.8248 25.9345 21.9256 26.4136 22.1272 26.804C22.3311 27.1945 22.6049 27.49 22.9486 27.6906C23.2945 27.8911 23.6806 27.9914 24.1067 27.9914C24.5329 27.9914 24.9178 27.8911 25.2614 27.6906C25.6074 27.49 25.8812 27.1945 26.0828 26.804C26.2867 26.4136 26.3887 25.9345 26.3887 25.367Z" fill="white"/>
</svg>
