<svg width="43" height="41" viewBox="0 0 43 41" fill="none" xmlns="http://www.w3.org/2000/svg">
<path d="M9.38625 40.2683C4.20959 40.2683 0 36.0588 0 30.8821C0 25.7054 4.20959 21.4958 9.38625 21.4958C14.5629 21.4958 18.7725 25.7054 18.7725 30.8821C18.7725 36.0872 14.5629 40.2683 9.38625 40.2683Z" fill="white"/>
<path d="M9.38625 40.2683C4.20959 40.2683 0 36.0588 0 30.8821C0 25.7054 4.20959 21.4958 9.38625 21.4958C14.5629 21.4958 18.7725 25.7054 18.7725 30.8821C18.7725 36.0872 14.5629 40.2683 9.38625 40.2683Z" fill="white"/>
<path d="M31.5711 1.04508L21.3885 17.6843C21.104 18.1679 21.4169 18.7652 21.9573 18.7652H32.14H42.3226C42.8631 18.7652 43.1759 18.1394 42.8915 17.6843L32.7089 1.04508C32.4244 0.618436 31.8271 0.618436 31.5711 1.04508Z" fill="#F7941D"/>
<path d="M18.5719 3.86116L14.9027 0.191991C14.6467 -0.0639971 14.1916 -0.0639971 13.9357 0.191991L9.89672 4.23092C9.64074 4.48691 9.18565 4.48691 8.92966 4.23092L4.89072 0.191991C4.63474 -0.0639971 4.17965 -0.0639971 3.92366 0.191991L0.254491 3.86116C-0.00149712 4.11715 -0.00149712 4.57224 0.254491 4.82823L4.29342 8.86716C4.54941 9.12315 4.54941 9.57823 4.29342 9.83422L0.254491 13.8732C-0.00149712 14.1291 -0.00149712 14.5842 0.254491 14.8402L3.92366 18.5094C4.17965 18.7654 4.63474 18.7654 4.89072 18.5094L8.92966 14.4705C9.18565 14.2145 9.64074 14.2145 9.89672 14.4705L13.9357 18.5094C14.1916 18.7654 14.6467 18.7654 14.9027 18.5094L18.5719 14.8402C18.8279 14.5842 18.8279 14.1291 18.5719 13.8732L14.533 9.83422C14.277 9.57823 14.277 9.12315 14.533 8.86716L18.5719 4.82823C18.8563 4.57224 18.8563 4.14559 18.5719 3.86116Z" fill="white"/>
<path d="M35.4648 34.3662H36.4028L38.6083 38.854H38.6844L40.8899 34.3662H41.8278V39.7727H41.0927V35.665H41.0293L39.0012 39.7727H38.2914L36.2634 35.665H36.2V39.7727H35.4648V34.3662Z" fill="white"/>
<path d="M34.1433 37.0696C34.1433 37.6398 34.0197 38.1326 33.7725 38.548C33.5254 38.9633 33.1863 39.2836 32.7553 39.5089C32.3244 39.7342 31.8322 39.8468 31.2787 39.8468C30.7252 39.8468 30.233 39.7342 29.802 39.5089C29.371 39.2836 29.032 38.9633 28.7848 38.548C28.5376 38.1326 28.4141 37.6398 28.4141 37.0696C28.4141 36.4994 28.5376 36.0066 28.7848 35.5913C29.032 35.176 29.371 34.8557 29.802 34.6304C30.233 34.4051 30.7252 34.2925 31.2787 34.2925C31.8322 34.2925 32.3244 34.4051 32.7553 34.6304C33.1863 34.8557 33.5254 35.176 33.7725 35.5913C34.0197 36.0066 34.1433 36.4994 34.1433 37.0696ZM33.3828 37.0696C33.3828 36.6015 33.2888 36.2064 33.1007 35.8843C32.9148 35.5623 32.6624 35.3185 32.3434 35.1531C32.0265 34.9876 31.6716 34.9049 31.2787 34.9049C30.8857 34.9049 30.5298 34.9876 30.2108 35.1531C29.8939 35.3185 29.6414 35.5623 29.4534 35.8843C29.2675 36.2064 29.1746 36.6015 29.1746 37.0696C29.1746 37.5378 29.2675 37.9329 29.4534 38.2549C29.6414 38.577 29.8939 38.8208 30.2108 38.9862C30.5298 39.1516 30.8857 39.2343 31.2787 39.2343C31.6716 39.2343 32.0265 39.1516 32.3434 38.9862C32.6624 38.8208 32.9148 38.577 33.1007 38.2549C33.2888 37.9329 33.3828 37.5378 33.3828 37.0696Z" fill="white"/>
<path d="M24.2566 39.7727H22.2539V34.3662H24.3453C24.9749 34.3662 25.5136 34.4744 25.9614 34.6909C26.4093 34.9056 26.7526 35.2145 26.9913 35.6175C27.23 36.0188 27.3494 36.4992 27.3494 37.0589C27.3494 37.6221 27.2289 38.1069 26.9881 38.5135C26.7473 38.9182 26.3966 39.2297 25.9361 39.448C25.4755 39.6644 24.9157 39.7727 24.2566 39.7727ZM23.0398 39.1919H24.2059C24.7425 39.1919 25.1872 39.1057 25.54 38.9332C25.8928 38.7607 26.1558 38.5152 26.329 38.1967C26.5022 37.8781 26.5888 37.4989 26.5888 37.0589C26.5888 36.6224 26.5033 36.2467 26.3322 35.9317C26.1611 35.6149 25.9054 35.372 25.5653 35.2031C25.2252 35.0323 24.8016 34.947 24.2946 34.947H23.0398V39.1919Z" fill="white"/>
<path d="M37.8115 30.4804V30.0053L41.3098 25.6547H37.7734V25.074H42.2478V25.5492L38.7494 29.8997H42.2858V30.4804H37.8115Z" fill="white"/>
<path d="M36.4499 25.074V30.4804H35.6641V25.074H36.4499Z" fill="white"/>
<path d="M33.3097 25.074H34.0955V28.6537C34.0955 29.0232 33.991 29.3532 33.7818 29.6436C33.5748 29.9322 33.2822 30.1601 32.9041 30.3273C32.5259 30.4928 32.0823 30.5755 31.5732 30.5755C31.064 30.5755 30.6204 30.4928 30.2423 30.3273C29.8641 30.1601 29.5705 29.9322 29.3613 29.6436C29.1543 29.3532 29.0508 29.0232 29.0508 28.6537V25.074H29.8366V28.6009C29.8366 28.8648 29.9064 29.0998 30.0458 29.3057C30.1852 29.5099 30.3838 29.6709 30.6415 29.7888C30.9014 29.905 31.2119 29.963 31.5732 29.963C31.9344 29.963 32.2449 29.905 32.5048 29.7888C32.7646 29.6709 32.9632 29.5099 33.1005 29.3057C33.24 29.0998 33.3097 28.8648 33.3097 28.6009V25.074Z" fill="white"/>
<path d="M24.6111 28.7909H25.473L26.1955 29.5828L26.3856 29.794L27.463 30.9872H26.6011L25.8913 30.1953L25.7138 29.9947L24.6111 28.7909ZM27.7292 27.7772C27.7292 28.3474 27.6056 28.8401 27.3585 29.2555C27.1113 29.6708 26.7722 29.9911 26.3413 30.2164C25.9103 30.4417 25.4181 30.5543 24.8646 30.5543C24.3111 30.5543 23.8189 30.4417 23.3879 30.2164C22.957 29.9911 22.6179 29.6708 22.3708 29.2555C22.1236 28.8401 22 28.3474 22 27.7772C22 27.2069 22.1236 26.7142 22.3708 26.2988C22.6179 25.8835 22.957 25.5632 23.3879 25.3379C23.8189 25.1126 24.3111 25 24.8646 25C25.4181 25 25.9103 25.1126 26.3413 25.3379C26.7722 25.5632 27.1113 25.8835 27.3585 26.2988C27.6056 26.7142 27.7292 27.2069 27.7292 27.7772ZM26.9687 27.7772C26.9687 27.309 26.8747 26.9139 26.6867 26.5918C26.5008 26.2698 26.2483 26.026 25.9293 25.8606C25.6124 25.6952 25.2575 25.6125 24.8646 25.6125C24.4717 25.6125 24.1157 25.6952 23.7967 25.8606C23.4798 26.026 23.2274 26.2698 23.0394 26.5918C22.8535 26.9139 22.7605 27.309 22.7605 27.7772C22.7605 28.2453 22.8535 28.6404 23.0394 28.9625C23.2274 29.2845 23.4798 29.5283 23.7967 29.6937C24.1157 29.8591 24.4717 29.9419 24.8646 29.9419C25.2575 29.9419 25.6124 29.8591 25.9293 29.6937C26.2483 29.5283 26.5008 29.2845 26.6867 28.9625C26.8747 28.6404 26.9687 28.2453 26.9687 27.7772Z" fill="white"/>
</svg>
